<svg width="96" height="70" viewBox="0 0 96 70" fill="none" xmlns="http://www.w3.org/2000/svg">
<g id="Group 1820548400">
<path id="Vector" d="M0 58.8457C0 59.3099 0.314271 61.5027 1.9642 61.8027C1.82849 60.4956 1.78563 59.3314 1.78563 58.8457C1.78563 58.36 1.82849 57.2029 1.9642 55.8887C0.314271 56.1887 0 58.3814 0 58.8457Z" fill="#609CC3"/>
<path id="Vector_2" d="M90.9474 50.377H89.2617C89.576 51.3983 89.7617 52.434 89.876 53.1197C90.0617 54.2553 90.1974 55.4124 90.2831 56.5624C90.3402 57.3195 90.3902 58.098 90.3902 58.8623C90.3902 59.6194 90.3402 60.4051 90.2831 61.1622C90.1974 62.3121 90.0688 63.4692 89.876 64.6049C89.7617 65.2834 89.576 66.3119 89.2617 67.3333H90.9402C92.9258 67.3333 93.283 60.2694 93.283 58.8623C93.2973 57.4409 92.9401 50.377 90.9474 50.377Z" fill="#609CC3"/>
<path id="Vector_3" d="M93.6016 55.8887C93.7373 57.1958 93.7801 58.36 93.7801 58.8457C93.7801 59.3314 93.7373 60.4885 93.6016 61.8027C95.2515 61.5027 95.5658 59.3099 95.5658 58.8457C95.5658 58.3814 95.2515 56.1887 93.6016 55.8887Z" fill="#609CC3"/>
<path id="Vector_4" d="M16.4566 61.7467H14.071C13.8567 62.4324 13.7353 62.8466 13.2496 62.8466C12.7568 62.8466 12.0568 61.0539 12.0568 58.8468C12.0568 56.6398 12.7639 54.847 13.2496 54.847C13.7425 54.847 13.8567 55.2684 14.071 55.9469H16.4566C16.0781 51.2114 14.9353 47.7188 13.2425 47.7188C11.5568 47.7188 9.91406 52.6971 9.91406 58.8397C9.91406 64.9823 11.5497 69.9606 13.2425 69.9606C14.9353 69.9749 16.0781 66.4893 16.4566 61.7467Z" fill="#609CC3"/>
<path id="Vector_5" d="M11.8994 47.7012H9.25666C6.3925 47.7012 5.87109 56.9936 5.87109 58.8507C5.87109 60.7006 6.38536 70.0002 9.25666 70.0002H11.8994C10.3352 68.3717 9.22094 63.9933 9.22094 58.8507C9.22094 53.708 10.3352 49.3297 11.8994 47.7012Z" fill="#609CC3"/>
<path id="Vector_6" d="M12.8151 56.4056C12.6508 57.0913 12.5508 57.9412 12.5508 58.8555C12.5508 59.7697 12.6508 60.6197 12.8151 61.3054H23.6717C22.6575 59.7697 21.7789 58.1269 21.0718 56.3984H12.8151V56.4056Z" fill="#609CC3"/>
<path id="Vector_7" d="M82.3157 47.7305C80.6301 47.7305 79.4873 51.216 79.1016 55.9587H81.4872C81.7014 55.273 81.8229 54.8587 82.3086 54.8587C82.8014 54.8587 83.5014 56.6515 83.5014 58.8585C83.5014 61.0656 82.7943 62.8584 82.3086 62.8584C81.8157 62.8584 81.7014 62.4369 81.4872 61.7584H79.1016C79.4801 66.4939 80.6229 69.9866 82.3157 69.9866C84.0013 69.9866 85.6441 65.0083 85.6441 58.8657C85.637 52.7088 84.0013 47.7305 82.3157 47.7305Z" fill="#609CC3"/>
<path id="Vector_8" d="M89.6884 58.8507C89.6884 57.0008 89.1742 47.7012 86.3029 47.7012H83.6602C85.2244 49.3297 86.3386 53.708 86.3386 58.8507C86.3386 63.9933 85.2172 68.3717 83.6602 70.0002H86.3029C89.1742 70.0002 89.6884 60.7006 89.6884 58.8507Z" fill="#609CC3"/>
<path id="Vector_9" d="M82.7544 61.3021C82.9187 60.6164 83.0187 59.7665 83.0187 58.8522C83.0187 57.938 82.9187 57.088 82.7544 56.4023H74.4976C73.7834 58.1237 72.912 59.7665 71.8906 61.3093H82.7544V61.3021Z" fill="#609CC3"/>
<path id="Vector_10" d="M6.29078 67.3158C5.97651 66.2944 5.7908 65.2658 5.67652 64.5873C5.49081 63.4516 5.35511 62.2945 5.2694 61.1446C5.21226 60.3875 5.16226 59.609 5.16226 58.8447C5.16226 58.0876 5.21226 57.3019 5.2694 56.5448C5.35511 55.3949 5.48367 54.2378 5.67652 53.1021C5.7908 52.4164 5.97651 51.3879 6.29078 50.3594H4.61228C2.62666 50.3594 2.26953 57.4233 2.26953 58.8304C2.26953 60.2375 2.62666 67.3015 4.61228 67.3015H6.29078V67.3158Z" fill="#609CC3"/>
<path id="Vector_11" d="M31.3108 63.2807C30.7466 61.7879 27.6967 53.6454 27.6967 53.6454C27.4681 53.0311 27.7681 52.3454 28.3824 52.1026C31.0465 51.0598 33.7107 50.017 36.3749 48.9742C36.2106 48.8313 36.082 48.6456 36.0106 48.4385C35.9678 48.3099 35.932 48.1813 35.8963 48.0528C35.8535 47.8885 35.8035 47.7171 35.7535 47.6314C35.4249 47.0314 35.0892 46.4171 34.6964 45.9029C33.8893 44.8458 33.475 43.7958 33.4322 42.6816C33.3964 41.7959 33.4036 40.896 33.4107 40.0246C33.4107 39.6532 33.4179 39.2746 33.4179 38.896C33.4179 38.2318 33.9536 37.6961 34.6178 37.6961H37.9677C37.8605 37.5175 37.7962 37.3033 37.7962 37.0818V34.5748C37.7962 33.9106 38.3319 33.3749 38.9962 33.3749H44.8888C44.7745 33.1892 44.7031 32.9749 44.7031 32.7392V29.3965C44.7031 28.7322 45.2388 28.1965 45.903 28.1965H49.2957C49.96 28.1965 50.4957 28.7322 50.4957 29.3965V32.7463C50.4957 32.982 50.4242 33.1963 50.31 33.382H56.224C56.8882 33.382 57.4239 33.9177 57.4239 34.582V37.089C57.4239 37.3104 57.3596 37.5175 57.2597 37.6961H60.5666C61.1952 37.6961 61.7166 38.1818 61.7595 38.8103L61.7666 38.9032C61.7809 39.0318 61.788 39.1675 61.788 39.296C61.7809 39.646 61.7809 39.996 61.7809 40.3388C61.7737 41.2674 61.7666 42.2245 61.6809 43.1816C61.6095 43.953 61.2952 44.7744 60.8095 45.4315L60.7666 45.4958C60.0667 46.4457 59.4596 47.2671 59.2738 48.2956C59.2239 48.567 59.081 48.8027 58.881 48.9813L66.8307 52.0883C67.4378 52.324 67.7449 53.0097 67.5163 53.624C66.8021 55.531 63.8951 63.2878 63.8951 63.2878C65.4164 63.3235 66.7807 63.3592 67.9592 63.4021C68.852 63.4307 69.6162 63.4664 70.2591 63.5021C70.8376 62.7878 71.3733 62.0521 71.8804 61.2879H65.8093L70.7162 56.381H74.4874C75.8874 52.9883 76.6659 49.267 76.6659 45.3672C76.6659 42.803 76.3302 40.3174 75.7017 37.9461C74.4874 37.9461 73.2804 37.9318 72.0661 37.8961C69.9876 37.8318 67.9092 37.7175 65.8235 37.4604C67.8949 37.1176 69.9662 36.9176 72.0447 36.7676C73.1304 36.689 74.216 36.6247 75.3017 36.5747C74.6517 34.5391 73.7803 32.6035 72.7232 30.7893C72.5875 30.7893 72.4518 30.7964 72.3233 30.8036C70.2448 30.8464 68.1663 30.8107 66.0878 30.675C64.0093 30.5321 61.9237 30.3179 59.8381 29.8536C61.9023 29.3036 63.9736 29.0036 66.0521 28.7751C67.7592 28.5965 69.4734 28.4822 71.1805 28.4179C69.0234 25.4395 66.3092 22.8896 63.188 20.9183C67.6449 14.9757 68.952 10.0259 67.0378 6.19753C63.9308 -0.0379038 53.9169 -0.0236193 52.617 0.00495084H44.3959C43.0889 -0.0307618 33.0822 -0.0379038 29.968 6.19753C28.1253 9.89736 29.2681 14.64 33.3679 20.3112C24.7111 25.3324 18.8828 34.682 18.8828 45.3886C18.8828 46.3743 18.9328 47.3457 19.0328 48.3028C19.9113 48.3528 20.7827 48.4028 21.6613 48.467C24.504 48.667 27.3467 48.9385 30.1894 49.3956C27.3324 49.7384 24.4826 49.8884 21.6327 49.967C20.847 49.9955 20.0542 50.0098 19.2685 50.0241C19.6256 52.2383 20.2399 54.3739 21.0756 56.3953H24.8468L29.7538 61.3022H23.6826C24.1754 62.045 24.6968 62.7664 25.254 63.4592C25.6611 63.4449 26.0968 63.4235 26.5682 63.4092C27.9181 63.3592 29.518 63.3235 31.3108 63.2807ZM62.5166 19.2969C63.1094 18.3684 71.459 4.97615 56.6811 1.91201C56.674 1.91201 75.2517 3.10481 62.5166 19.2969ZM34.6535 8.56885C35.9606 5.94754 41.7104 5.21186 44.296 5.27614H52.7027C55.2812 5.20471 61.0309 5.92611 62.3451 8.56171C63.3308 10.5402 61.9452 14.0757 58.4382 18.5255C58.4239 18.547 58.4025 18.5755 58.381 18.6041C58.0596 18.447 57.7382 18.2827 57.4096 18.1398C54.4741 16.8113 51.2099 16.0614 47.7744 16.0614C44.3674 16.0614 41.139 16.797 38.2177 18.1041C34.9678 13.8615 33.6964 10.483 34.6535 8.56885Z" fill="#D9B283"/>
<path id="Vector_12" d="M24.8416 56.4023H21.0703C21.7846 58.1237 22.656 59.7665 23.6702 61.3093H29.7413L24.8416 56.4023Z" fill="#D9B283"/>
<path id="Vector_13" d="M65.8203 61.3054H71.8915C72.9128 59.7697 73.7842 58.1269 74.4985 56.3984H70.7272L65.8203 61.3054Z" fill="#D9B283"/>
<path id="Vector_14" d="M58.3894 18.6068C58.4108 18.5854 58.4322 18.5568 58.4465 18.5283C58.1108 18.3926 57.768 18.264 57.418 18.1426C57.7465 18.2854 58.0679 18.4497 58.3894 18.6068Z" fill="#D9B283"/>
<path id="Vector_15" d="M54.4846 38.8887H51.1133V40.56H54.4846V38.8887Z" fill="url(#paint0_linear_344_2320)"/>
<path id="Vector_16" d="M48.1068 29.3965H45.9141V32.7463H48.1068V29.3965Z" fill="url(#paint1_linear_344_2320)"/>
<path id="Vector_17" d="M49.2976 29.3965H48.0977V32.7463H49.2976V29.3965Z" fill="url(#paint2_linear_344_2320)"/>
<path id="Vector_18" d="M44.0985 38.8887H40.7344V40.5672H44.0985V38.8887Z" fill="url(#paint3_linear_344_2320)"/>
<path id="Vector_19" d="M48.0971 38.9102H45.9258V40.5672H48.0971V38.9102Z" fill="url(#paint4_linear_344_2320)"/>
<path id="Vector_20" d="M49.2976 38.9102H48.0977V40.5672H49.2976V38.9102Z" fill="url(#paint5_linear_344_2320)"/>
<path id="Vector_21" d="M60.4888 43.082C60.603 41.8249 60.5673 40.5536 60.5959 39.2893C60.5959 39.1608 60.5816 39.025 60.5673 38.8965H56.3318C56.3104 38.9465 56.2889 38.9751 56.2889 39.0036C56.2818 39.7107 56.2818 40.425 56.2747 41.1392C56.2675 42.0749 55.9961 42.3535 55.0604 42.3535C50.0964 42.3535 45.1394 42.3535 40.1754 42.3535C39.1969 42.3535 38.9326 42.0892 38.9326 41.125C38.9326 40.3893 38.9326 39.6465 38.9326 38.9108H34.6256C34.6256 40.1821 34.5899 41.4178 34.6399 42.6535C34.6756 43.6034 35.0685 44.4248 35.6542 45.1891C36.1041 45.7676 36.4613 46.4247 36.8113 47.0675C36.9755 47.3675 37.0398 47.7318 37.1541 48.0818C37.3112 48.0246 37.4398 47.9746 37.5684 47.9247C40.7254 46.689 43.8824 45.4605 47.0394 44.2177C47.4393 44.0605 47.7965 44.0677 48.1965 44.2248C49.9964 44.9462 51.8106 45.6462 53.6176 46.3533C55.089 46.9318 56.5675 47.5032 58.096 48.1032C58.3389 46.7747 59.096 45.7747 59.8531 44.7462C60.1888 44.2677 60.4388 43.6534 60.4888 43.082Z" fill="url(#paint6_linear_344_2320)"/>
<path id="Vector_22" d="M56.2246 34.584H39.0039V37.091H56.2246V34.584Z" fill="url(#paint7_linear_344_2320)"/>
<path id="Vector_23" d="M56.4539 64.3903C57.0467 64.3617 57.6396 64.3332 58.2395 64.2975C50.2399 63.9689 42.2474 63.5404 34.2478 63.8903C36.5191 64.0903 38.9761 64.2617 41.6046 64.3832H38.6976C28.8909 64.476 21.8555 64.7046 21.8555 64.9831C21.8555 65.2617 29.3766 65.5045 39.7189 65.5831C32.6693 65.676 27.7123 65.9045 27.7123 66.1688C27.7123 66.4545 33.6406 66.6974 41.7403 66.7759C36.8476 66.8688 33.4121 67.0902 33.4121 67.3545C33.4121 67.7044 39.5547 67.983 47.1186 67.983C54.6825 67.983 60.8251 67.7044 60.8251 67.3545C60.8251 67.0902 57.3896 66.8688 52.4969 66.7759C60.6037 66.6974 66.5249 66.4616 66.5249 66.1688C66.5249 65.9045 61.5679 65.676 54.5183 65.5831C64.8607 65.5045 72.3817 65.2688 72.3817 64.9831C72.3817 64.8189 69.8676 64.6689 65.7535 64.5546C65.2892 64.5474 64.8249 64.5332 64.3607 64.5189C62.0822 64.4617 59.4109 64.4189 56.4539 64.3903Z" fill="url(#paint8_linear_344_2320)"/>
<path id="Vector_24" d="M58.2475 64.2965C59.6046 64.2179 60.976 64.1251 62.3616 64.0037C63.7044 60.411 65.0544 56.8254 66.4043 53.2184C60.4189 50.8828 54.4906 48.5615 48.498 46.2188V59.2253C48.498 59.4396 48.498 59.6539 48.448 59.8681C48.3694 60.2681 48.0194 60.5252 47.6052 60.5252C47.1981 60.5181 46.8552 60.261 46.7695 59.8538C46.7338 59.661 46.7338 59.461 46.7338 59.2539C46.7266 55.1112 46.7266 50.9685 46.7266 46.8259V46.2188C40.7055 48.5758 34.7772 50.9043 28.8203 53.2256C30.1488 56.7611 31.4559 60.261 32.7701 63.7465C33.163 63.7894 33.5558 63.8251 33.9558 63.8608C34.0558 63.868 34.1558 63.8751 34.2558 63.8894C42.2483 63.5394 50.2479 63.9679 58.2475 64.2965ZM61.5831 54.7398C61.6903 54.6898 61.8045 54.6612 61.9117 54.6612L61.5831 54.7398ZM32.7416 54.6612C32.8487 54.6612 32.963 54.6827 33.063 54.7398L32.7416 54.6612ZM40.0984 57.2897C39.427 57.2397 38.8341 56.8826 38.3199 56.2183C37.8056 55.5469 37.4485 54.3255 37.8699 53.2184C38.0342 52.7827 38.2842 52.4042 38.4842 52.0971C38.4842 52.0971 38.5984 51.9185 38.627 51.8685C38.7056 51.7328 38.7913 51.5971 38.8841 51.4757C39.1127 51.1757 39.4627 50.9971 39.8412 50.9971C39.8484 50.9971 39.9127 50.9971 39.9412 51.0042C40.1555 50.84 40.4269 50.74 40.6912 50.74C40.7769 50.74 40.8626 50.7471 40.9412 50.7685C41.084 50.7971 41.2197 50.8471 41.3412 50.9185C41.4912 50.8543 41.7197 50.7685 42.0126 50.7614C42.0269 50.7614 42.0483 50.7614 42.0626 50.7614C42.4554 50.7614 42.8197 50.9542 43.0482 51.2757C43.1625 51.4399 43.2339 51.6185 43.2768 51.7899C43.5125 51.9185 43.6982 52.0828 43.8196 52.2185C44.2125 52.6185 44.6482 53.3827 44.4982 54.6969C44.4625 55.0326 44.3339 55.6826 43.9053 56.2397C43.7125 56.4897 43.4911 56.6469 43.3268 56.7683C42.8625 57.104 42.4126 57.2611 41.934 57.2611C41.7269 57.2611 41.5126 57.2254 41.3126 57.1611C41.2555 57.1397 41.1912 57.1183 41.1412 57.0968C40.9055 57.2183 40.6055 57.304 40.2484 57.304C40.2127 57.2968 40.1555 57.2968 40.0984 57.2897Z" fill="url(#paint9_linear_344_2320)"/>
<path id="Vector_25" d="M65.76 64.5513C65.3171 64.5371 64.8529 64.5299 64.3672 64.5156C64.8315 64.5228 65.2957 64.5371 65.76 64.5513Z" fill="url(#paint10_linear_344_2320)"/>
<path id="Vector_26" d="M61.582 54.7407L61.9106 54.6621C61.8034 54.6621 61.6892 54.6907 61.582 54.7407Z" fill="url(#paint11_linear_344_2320)"/>
<path id="Vector_27" d="M32.7422 54.6621L33.0707 54.7407C32.9636 54.6835 32.8565 54.6621 32.7422 54.6621Z" fill="url(#paint12_linear_344_2320)"/>
<path id="Vector_28" d="M42.271 52.8598C42.1996 52.9526 42.1067 53.3026 42.1281 53.5026C42.1567 53.7097 42.4353 53.7954 42.5853 53.6883C42.6495 53.6454 42.6995 53.4383 42.7924 53.4455C42.8281 53.4455 42.871 53.5026 42.9067 53.5597C42.8281 53.2597 42.671 52.9812 42.4567 52.7598C42.3781 52.7669 42.3138 52.8098 42.271 52.8598Z" fill="url(#paint13_linear_344_2320)"/>
<path id="Vector_29" d="M41.3928 52.5966C41.4642 52.618 41.5356 52.5894 41.6142 52.5609C41.707 52.5252 41.7928 52.4823 41.8713 52.5466C41.8499 52.6537 41.757 52.7394 41.6928 52.8109C41.4856 53.0537 41.2642 53.2894 41.0214 53.4894C40.9499 53.418 40.8071 53.3323 40.8285 53.1537C40.8428 53.0394 40.9785 52.9823 41.0499 52.8609C41.0928 52.7894 41.1214 52.6609 41.1142 52.5537C41.1071 52.3823 41.0071 52.2894 40.9214 52.1895C40.8785 52.1966 40.8428 52.1966 40.7999 52.2037C40.8357 52.268 40.8571 52.3394 40.8428 52.4109C40.8357 52.4752 40.7857 52.5252 40.7214 52.5537C40.6214 52.4823 40.6142 52.2466 40.45 52.2966C40.4285 52.4752 40.6071 52.6037 40.5357 52.7894C40.5071 52.8751 40.4071 52.9037 40.3071 52.8894C40.2143 52.8751 40.15 52.768 40.0428 52.8037C40.0214 52.9466 40.1 53.0823 40.0643 53.2394C40.3285 53.2894 40.55 53.4465 40.7285 53.6108C40.7714 53.6537 40.8928 53.7394 40.8999 53.7965C40.9071 53.8322 40.8571 53.9251 40.8428 53.9751C40.7428 54.3036 40.7499 54.7465 40.8428 55.0679C40.8642 55.1322 40.9071 55.2179 40.8999 55.2607C40.8928 55.3179 40.7785 55.4107 40.7071 55.4607C40.5642 55.5607 40.3928 55.625 40.1928 55.6107C40.4 55.725 40.6285 55.8036 40.8714 55.8393C40.9571 55.7607 41.0356 55.6822 41.1214 55.6107C41.2142 55.6893 41.2928 55.7679 41.3785 55.8393C41.7999 55.7822 42.1784 55.575 42.4641 55.275C42.3856 55.3179 42.307 55.3465 42.2213 55.375C42.107 55.4036 41.9356 55.4322 41.7856 55.4107C41.6142 55.3893 41.4571 55.325 41.3428 55.2322C41.4642 55.0036 41.557 54.7108 41.507 54.3608C41.4642 54.0894 41.3142 53.868 41.2071 53.6822C41.557 53.3751 41.9927 53.0251 42.107 52.468C41.9142 52.3466 41.6928 52.2537 41.4571 52.2109C41.4142 52.3323 41.3785 52.4752 41.3928 52.5966Z" fill="url(#paint14_linear_344_2320)"/>
<path id="Vector_30" d="M39.6111 53.1824C39.704 53.0538 39.7611 52.8967 39.804 52.7324C39.5397 52.9967 39.3612 53.3324 39.2969 53.6895C39.3897 53.5038 39.5111 53.3395 39.6111 53.1824Z" fill="url(#paint15_linear_344_2320)"/>
<path id="Vector_31" d="M42.9542 53.6541C43.0399 53.8398 43.1042 54.0898 43.0827 54.3469C43.0399 54.7469 42.8042 55.0898 42.4685 55.2683C42.1899 55.5683 41.8114 55.7683 41.3828 55.8326C41.4757 55.904 41.5757 55.9683 41.6971 56.0111C42.0828 56.1326 42.4042 55.954 42.6328 55.7897C42.7542 55.704 42.8827 55.604 42.9685 55.4897C43.1613 55.2397 43.2756 54.8826 43.3184 54.5541C43.3899 53.9041 43.2827 53.3684 42.9613 53.0398C42.8613 52.9398 42.7256 52.8256 42.5828 52.7827C42.5399 52.7684 42.497 52.7613 42.4542 52.7684C42.6685 52.9898 42.8185 53.2613 42.9042 53.5684C42.9256 53.5898 42.9399 53.6255 42.9542 53.6541Z" fill="url(#paint16_linear_344_2320)"/>
<path id="Vector_32" d="M42.1323 52.3375C42.1466 52.1947 42.1323 52.0447 42.0752 51.959C41.8681 51.9661 41.7109 52.1018 41.4967 52.1375C41.4824 52.1661 41.4681 52.1947 41.4609 52.2233C41.6966 52.2661 41.9181 52.359 42.1109 52.4804C42.118 52.4304 42.1252 52.3804 42.1323 52.3375Z" fill="url(#paint17_linear_344_2320)"/>
<path id="Vector_33" d="M40.0702 55.5919C39.656 55.4062 39.2845 55.0705 39.1774 54.5705C39.0988 54.2134 39.1703 53.9349 39.2917 53.6849C39.3631 53.3277 39.5345 52.9992 39.7988 52.7278C39.8202 52.6492 39.8345 52.5563 39.8488 52.4706C39.8631 52.3921 39.8917 52.2778 39.8345 52.1992C39.7274 52.3421 39.6417 52.5063 39.5417 52.6635C39.3488 52.9635 39.1203 53.292 38.9917 53.6492C38.7489 54.2848 38.9631 55.0848 39.2703 55.4848C39.4702 55.7419 39.7702 56.0633 40.1845 56.0919C40.5059 56.1133 40.6988 55.9848 40.8702 55.8348C40.6273 55.8062 40.3988 55.7205 40.1916 55.6062C40.1559 55.6062 40.1131 55.6062 40.0702 55.5919Z" fill="url(#paint18_linear_344_2320)"/>
<path id="Vector_34" d="M40.8965 52.1609C40.8537 52.1037 40.7965 51.9609 40.6965 51.9395C40.6823 51.9395 40.6751 51.9466 40.668 51.9537C40.6823 52.0252 40.7537 52.1109 40.8037 52.2109C40.8465 52.2037 40.8822 52.1966 40.9251 52.1966C40.918 52.1823 40.9037 52.1752 40.8965 52.1609Z" fill="url(#paint19_linear_344_2320)"/>
</g>
<defs>
<linearGradient id="paint0_linear_344_2320" x1="51.1149" y1="39.7258" x2="54.4879" y2="39.7258" gradientUnits="userSpaceOnUse">
<stop stop-color="#0080C8"/>
<stop offset="1" stop-color="#164193"/>
</linearGradient>
<linearGradient id="paint1_linear_344_2320" x1="45.9119" y1="31.0729" x2="49.3013" y2="31.0729" gradientUnits="userSpaceOnUse">
<stop stop-color="#0080C8"/>
<stop offset="1" stop-color="#164193"/>
</linearGradient>
<linearGradient id="paint2_linear_344_2320" x1="45.9099" y1="31.0729" x2="49.2993" y2="31.0729" gradientUnits="userSpaceOnUse">
<stop stop-color="#0080C8"/>
<stop offset="1" stop-color="#164193"/>
</linearGradient>
<linearGradient id="paint3_linear_344_2320" x1="40.7312" y1="39.7278" x2="44.0965" y2="39.7278" gradientUnits="userSpaceOnUse">
<stop stop-color="#0080C8"/>
<stop offset="1" stop-color="#164193"/>
</linearGradient>
<linearGradient id="paint4_linear_344_2320" x1="45.9227" y1="39.7353" x2="49.2937" y2="39.7353" gradientUnits="userSpaceOnUse">
<stop stop-color="#0080C8"/>
<stop offset="1" stop-color="#164193"/>
</linearGradient>
<linearGradient id="paint5_linear_344_2320" x1="45.9232" y1="39.7353" x2="49.2942" y2="39.7353" gradientUnits="userSpaceOnUse">
<stop stop-color="#0080C8"/>
<stop offset="1" stop-color="#164193"/>
</linearGradient>
<linearGradient id="paint6_linear_344_2320" x1="34.6146" y1="43.4934" x2="60.595" y2="43.4934" gradientUnits="userSpaceOnUse">
<stop stop-color="#0080C8"/>
<stop offset="1" stop-color="#164193"/>
</linearGradient>
<linearGradient id="paint7_linear_344_2320" x1="39.0039" y1="35.8393" x2="56.2253" y2="35.8393" gradientUnits="userSpaceOnUse">
<stop stop-color="#0080C8"/>
<stop offset="1" stop-color="#164193"/>
</linearGradient>
<linearGradient id="paint8_linear_344_2320" x1="21.8565" y1="65.8725" x2="72.3876" y2="65.8725" gradientUnits="userSpaceOnUse">
<stop stop-color="#0080C8"/>
<stop offset="1" stop-color="#164193"/>
</linearGradient>
<linearGradient id="paint9_linear_344_2320" x1="21.8574" y1="55.2586" x2="72.3884" y2="55.2586" gradientUnits="userSpaceOnUse">
<stop stop-color="#0080C8"/>
<stop offset="1" stop-color="#164193"/>
</linearGradient>
<linearGradient id="paint10_linear_344_2320" x1="21.8559" y1="64.5309" x2="72.3869" y2="64.5309" gradientUnits="userSpaceOnUse">
<stop stop-color="#0080C8"/>
<stop offset="1" stop-color="#164193"/>
</linearGradient>
<linearGradient id="paint11_linear_344_2320" x1="21.8565" y1="54.7021" x2="72.3873" y2="54.7021" gradientUnits="userSpaceOnUse">
<stop stop-color="#0080C8"/>
<stop offset="1" stop-color="#164193"/>
</linearGradient>
<linearGradient id="paint12_linear_344_2320" x1="21.858" y1="54.7002" x2="72.3891" y2="54.7002" gradientUnits="userSpaceOnUse">
<stop stop-color="#0080C8"/>
<stop offset="1" stop-color="#164193"/>
</linearGradient>
<linearGradient id="paint13_linear_344_2320" x1="38.8923" y1="53.247" x2="43.3407" y2="53.247" gradientUnits="userSpaceOnUse">
<stop stop-color="#0080C8"/>
<stop offset="1" stop-color="#164193"/>
</linearGradient>
<linearGradient id="paint14_linear_344_2320" x1="38.8927" y1="54.0153" x2="43.341" y2="54.0153" gradientUnits="userSpaceOnUse">
<stop stop-color="#0080C8"/>
<stop offset="1" stop-color="#164193"/>
</linearGradient>
<linearGradient id="paint15_linear_344_2320" x1="38.8895" y1="53.2095" x2="43.3379" y2="53.2095" gradientUnits="userSpaceOnUse">
<stop stop-color="#0080C8"/>
<stop offset="1" stop-color="#164193"/>
</linearGradient>
<linearGradient id="paint16_linear_344_2320" x1="38.8899" y1="54.4068" x2="43.3382" y2="54.4068" gradientUnits="userSpaceOnUse">
<stop stop-color="#0080C8"/>
<stop offset="1" stop-color="#164193"/>
</linearGradient>
<linearGradient id="paint17_linear_344_2320" x1="38.8894" y1="52.2127" x2="43.3378" y2="52.2127" gradientUnits="userSpaceOnUse">
<stop stop-color="#0080C8"/>
<stop offset="1" stop-color="#164193"/>
</linearGradient>
<linearGradient id="paint18_linear_344_2320" x1="38.8915" y1="54.1507" x2="43.3398" y2="54.1507" gradientUnits="userSpaceOnUse">
<stop stop-color="#0080C8"/>
<stop offset="1" stop-color="#164193"/>
</linearGradient>
<linearGradient id="paint19_linear_344_2320" x1="38.8893" y1="52.0747" x2="43.3376" y2="52.0747" gradientUnits="userSpaceOnUse">
<stop stop-color="#0080C8"/>
<stop offset="1" stop-color="#164193"/>
</linearGradient>
</defs>
</svg>
